<svg width="18" height="18" viewBox="0 0 18 18" fill="none" xmlns="http://www.w3.org/2000/svg">
<path d="M2 18C1.45 18 0.979333 17.8043 0.588 17.413C0.196667 17.0217 0.000666667 16.5507 0 16V2C0 1.45 0.196 0.979333 0.588 0.588C0.98 0.196667 1.45067 0.000666667 2 0H16C16.55 0 17.021 0.196 17.413 0.588C17.805 0.98 18.0007 1.45067 18 2V16C18 16.55 17.8043 17.021 17.413 17.413C17.0217 17.805 16.5507 18.0007 16 18H2ZM9 2V8.125C9 8.325 9.08333 8.471 9.25 8.563C9.41667 8.655 9.58333 8.65067 9.75 8.55L10.975 7.8C11.1417 7.7 11.3167 7.65 11.5 7.65C11.6833 7.65 11.8583 7.7 12.025 7.8L13.25 8.55C13.4167 8.65 13.5833 8.65433 13.75 8.563C13.9167 8.47167 14 8.32567 14 8.125V2H9Z" fill="#FFCD29"/>
</svg>
