<svg width="24" height="16" viewBox="0 0 24 16" fill="none" xmlns="http://www.w3.org/2000/svg">
<path d="M17 10H23M23 10L20 7M23 10L20 13" stroke="#F24822" stroke-width="1.5" stroke-linecap="round" stroke-linejoin="round"/>
<path fill-rule="evenodd" clip-rule="evenodd" d="M0.25 3C0.25 2.27065 0.539731 1.57118 1.05546 1.05546C1.57118 0.539731 2.27065 0.25 3 0.25H16C16.7293 0.25 17.4288 0.539731 17.9445 1.05546C18.4603 1.57118 18.75 2.27065 18.75 3V5.129C18.6293 5.209 18.5157 5.30233 18.409 5.409C18.1087 5.70939 17.8996 6.08865 17.8058 6.50292C17.712 6.9172 17.7374 7.34955 17.879 7.75H17C16.4033 7.75 15.831 7.98705 15.409 8.40901C14.9871 8.83097 14.75 9.40326 14.75 10C14.75 10.5967 14.9871 11.169 15.409 11.591C15.831 12.0129 16.4033 12.25 17 12.25H17.878C17.7444 12.6281 17.7143 13.035 17.7908 13.4287C17.8672 13.8224 18.0475 14.1884 18.313 14.489C18.0638 14.876 17.7214 15.1942 17.3173 15.4145C16.9132 15.6348 16.4603 15.7502 16 15.75H3C2.27065 15.75 1.57118 15.4603 1.05546 14.9445C0.539731 14.4288 0.25 13.7293 0.25 13V3ZM17 9.25H18.75V10.75H17C16.8011 10.75 16.6103 10.671 16.4697 10.5303C16.329 10.3897 16.25 10.1989 16.25 10C16.25 9.80109 16.329 9.61032 16.4697 9.46967C16.6103 9.32902 16.8011 9.25 17 9.25ZM5.416 4.376C5.25049 4.26827 5.04917 4.23016 4.85573 4.26996C4.6623 4.30975 4.49237 4.42423 4.38282 4.58855C4.27328 4.75287 4.23296 4.95376 4.27063 5.14762C4.30829 5.34148 4.4209 5.51266 4.584 5.624L9.084 8.624C9.2072 8.70612 9.35194 8.74995 9.5 8.74995C9.64806 8.74995 9.7928 8.70612 9.916 8.624L14.416 5.624C14.5791 5.51266 14.6917 5.34148 14.7294 5.14762C14.767 4.95376 14.7267 4.75287 14.6172 4.58855C14.5076 4.42423 14.3377 4.30975 14.1443 4.26996C13.9508 4.23016 13.7495 4.26827 13.584 4.376L9.5 7.099L5.416 4.376Z" fill="#F24822"/>
</svg>
