<svg width="24" height="24" viewBox="0 0 24 24" fill="none" xmlns="http://www.w3.org/2000/svg">
<path fill-rule="evenodd" clip-rule="evenodd" d="M0.25 7C0.25 6.27065 0.539731 5.57118 1.05546 5.05546C1.57118 4.53973 2.27065 4.25 3 4.25H16C16.7293 4.25 17.4288 4.53973 17.9445 5.05546C18.4603 5.57118 18.75 6.27065 18.75 7V9.129C18.6293 9.209 18.5157 9.30233 18.409 9.409L15.409 12.409C15.2001 12.6179 15.0343 12.866 14.9213 13.139C14.8082 13.4119 14.75 13.7045 14.75 14C14.75 14.2955 14.8082 14.5881 14.9213 14.861C15.0343 15.134 15.2001 15.3821 15.409 15.591L18.31 18.492C18.0607 18.878 17.7187 19.1953 17.3152 19.4151C16.9116 19.6348 16.4595 19.75 16 19.75H3C2.27065 19.75 1.57118 19.4603 1.05546 18.9445C0.539731 18.4288 0.25 17.7293 0.25 17V7ZM16.47 13.47L18.75 11.19V16.81L17.75 15.81L16.47 14.53C16.3295 14.3894 16.2507 14.1988 16.2507 14C16.2507 13.8012 16.3295 13.6106 16.47 13.47ZM5.416 8.376C5.25049 8.26827 5.04917 8.23016 4.85573 8.26996C4.6623 8.30975 4.49237 8.42423 4.38282 8.58855C4.27328 8.75287 4.23296 8.95376 4.27063 9.14762C4.30829 9.34148 4.4209 9.51266 4.584 9.624L9.084 12.624C9.2072 12.7061 9.35194 12.7499 9.5 12.7499C9.64806 12.7499 9.7928 12.7061 9.916 12.624L14.416 9.624C14.5791 9.51266 14.6917 9.34148 14.7294 9.14762C14.767 8.95376 14.7267 8.75287 14.6172 8.58855C14.5076 8.42423 14.3377 8.30975 14.1443 8.26996C13.9508 8.23016 13.7495 8.26827 13.584 8.376L9.5 11.099L5.416 8.376Z" fill="#0D99FF"/>
<path fill-rule="evenodd" clip-rule="evenodd" d="M20.5301 10.47C20.6705 10.6106 20.7494 10.8012 20.7494 11C20.7494 11.1987 20.6705 11.3894 20.5301 11.53L18.8101 13.25H23.0001C23.199 13.25 23.3898 13.329 23.5304 13.4697C23.6711 13.6103 23.7501 13.8011 23.7501 14C23.7501 14.1989 23.6711 14.3897 23.5304 14.5303C23.3898 14.671 23.199 14.75 23.0001 14.75H18.8101L20.5301 16.47C20.6038 16.5387 20.6629 16.6215 20.7039 16.7135C20.7448 16.8055 20.7669 16.9048 20.7687 17.0055C20.7704 17.1062 20.7519 17.2062 20.7142 17.2996C20.6765 17.393 20.6203 17.4778 20.5491 17.549C20.4779 17.6203 20.3931 17.6764 20.2997 17.7141C20.2063 17.7518 20.1063 17.7704 20.0056 17.7686C19.9048 17.7668 19.8055 17.7448 19.7135 17.7038C19.6215 17.6628 19.5387 17.6037 19.4701 17.53L16.4701 14.53C16.3296 14.3894 16.2507 14.1987 16.2507 14C16.2507 13.8012 16.3296 13.6106 16.4701 13.47L19.4701 10.47C19.6107 10.3295 19.8013 10.2507 20.0001 10.2507C20.1988 10.2507 20.3894 10.3295 20.5301 10.47Z" fill="#0D99FF"/>
</svg>
